<svg preserveAspectRatio="none" width="100%" height="100%" overflow="visible" style="display: block;" viewBox="0 0 92 26" fill="none" xmlns="http://www.w3.org/2000/svg">
<g id="svg">
<path d="M3.64414 0H6.965L5.79418 5.51182H6.53925L14.5434 0H18.5241L8.75316 6.91637L15.6503 13.8327H11.6696L5.96448 8.32093H5.19813L4.02732 13.8327H0.706456L3.64414 0Z" fill="var(--fill-0, white)"/>
<path d="M26.9043 3.10705L24.0092 8.59758H29.7994L26.9043 3.10705ZM25.2439 0H28.5647L36.1857 13.8327H32.5881L31.1192 11.0449H22.6894L21.2205 13.8327H17.6229L25.2439 0Z" fill="var(--fill-0, white)"/>
<path d="M37.9542 0H41.2751V13.8327H37.9542V0Z" fill="var(--fill-0, white)"/>
<path d="M46.8048 2.95808V6.40562H53.8297C54.1703 6.40562 54.4542 6.29212 54.6812 6.06513C54.9225 5.82394 55.0431 5.5331 55.0431 5.1926V4.1711C55.0431 3.83061 54.9225 3.54686 54.6812 3.31986C54.4542 3.07867 54.1703 2.95808 53.8297 2.95808H46.8048ZM43.484 0H54.8728C55.8379 0 56.661 0.340498 57.3422 1.0215C58.0234 1.70249 58.364 2.52536 58.364 3.49011V5.8736C58.364 6.68228 58.1156 7.39874 57.6189 8.02299C57.1364 8.64724 56.512 9.05158 55.7456 9.23602L58.8536 13.8327H55.0857L52.0629 9.3637H46.8048V13.8327H43.484V0Z" fill="var(--fill-0, white)"/>
<path d="M69.916 3.10705L67.0209 8.59758H72.8111L69.916 3.10705ZM68.2556 0H71.5764L79.1974 13.8327H75.5998L74.1309 11.0449H65.701L64.2322 13.8327H60.6346L68.2556 0Z" fill="var(--fill-0, white)"/>
<path d="M77.12 0H92V2.83039H86.2311V13.8327H82.9102V2.83039H77.12V0Z" fill="var(--fill-0, white)"/>
<path d="M2.69731 15.6899H8.64725C9.38768 15.6899 10.0223 15.9542 10.5512 16.483C11.0801 17.0117 11.3446 17.6462 11.3446 18.3864V19.2588H8.32992V19.0208C8.30876 18.8411 8.24001 18.693 8.12365 18.5767C8.0073 18.4498 7.8645 18.3864 7.69526 18.3864H3.56996C3.19975 18.3864 3.01464 18.545 3.01464 18.8622V19.005C3.01464 19.2059 3.30552 19.3539 3.88729 19.4491C4.47964 19.5337 5.19364 19.6077 6.02927 19.6712C6.87549 19.724 7.71641 19.8192 8.55205 19.9567C9.39826 20.0836 10.1123 20.3374 10.694 20.718C11.2864 21.0987 11.5825 21.5957 11.5825 22.209V23.3035C11.5825 24.0437 11.3181 24.6782 10.7892 25.2069C10.2603 25.7356 9.62568 26 8.88524 26H2.69731C1.95687 26 1.32221 25.7356 0.793325 25.2069C0.264442 24.6782 0 24.0437 0 23.3035V22.4311H3.01464V22.669C3.01464 22.8488 3.07281 23.0021 3.18917 23.129C3.3161 23.2453 3.46948 23.3035 3.6493 23.3035H8.01259C8.3828 23.3035 8.56791 23.1449 8.56791 22.8277V22.6849C8.56791 22.484 8.27174 22.3465 7.67939 22.2725C7.09762 22.1879 6.38362 22.1192 5.53741 22.0663C4.70177 22.0134 3.86085 21.9288 3.01464 21.8125C2.179 21.6856 1.46501 21.4265 0.872658 21.0353C0.290886 20.644 0 20.1259 0 19.4808V18.3864C0 17.6462 0.264442 17.0117 0.793325 16.483C1.32221 15.9542 1.95687 15.6899 2.69731 15.6899Z" fill="var(--fill-0, white)"/>
<path d="M12.7676 15.6899H22.8428V18.2595H15.7822V19.576H22.5255V22.1456H15.7822V23.4304H22.8428V26H12.7676V15.6899Z" fill="var(--fill-0, white)"/>
<path d="M26.7295 15.6899H32.7588C33.4992 15.6899 34.1339 15.9542 34.6627 16.483C35.1916 17.0117 35.4561 17.6462 35.4561 18.3864V19.4967H32.4414V19.0208C32.4414 18.8411 32.378 18.693 32.251 18.5767C32.1347 18.4498 31.9866 18.3864 31.8068 18.3864H27.6815C27.5017 18.3864 27.3483 18.4498 27.2213 18.5767C27.105 18.693 27.0468 18.8411 27.0468 19.0208V22.669C27.0468 22.8488 27.105 23.0021 27.2213 23.129C27.3483 23.2453 27.5017 23.3035 27.6815 23.3035H31.8068C31.9866 23.3035 32.1347 23.2453 32.251 23.129C32.378 23.0021 32.4414 22.8488 32.4414 22.669V22.1932H35.4561V23.3035C35.4561 24.0437 35.1916 24.6782 34.6627 25.2069C34.1339 25.7356 33.4992 26 32.7588 26H26.7295C25.989 26 25.3544 25.7356 24.8255 25.2069C24.2966 24.6782 24.0322 24.0437 24.0322 23.3035V18.3864C24.0322 17.6462 24.2966 17.0117 24.8255 16.483C25.3544 15.9542 25.989 15.6899 26.7295 15.6899Z" fill="var(--fill-0, white)"/>
<path d="M36.6448 15.6899H39.6594V22.669C39.6594 22.8488 39.7176 23.0021 39.834 23.129C39.9609 23.2453 40.1143 23.3035 40.2941 23.3035H44.4194C44.5992 23.3035 44.7473 23.2453 44.8637 23.129C44.9906 23.0021 45.0541 22.8488 45.0541 22.669V15.6899H48.0687V23.3035C48.0687 24.0437 47.8043 24.6782 47.2754 25.2069C46.7465 25.7356 46.1118 26 45.3714 26H39.3421C38.6017 26 37.967 25.7356 37.4381 25.2069C36.9093 24.6782 36.6448 24.0437 36.6448 23.3035V15.6899Z" fill="var(--fill-0, white)"/>
<path d="M52.2721 18.3864V20.2898H57.032C57.2119 20.2898 57.3599 20.2316 57.4763 20.1153C57.6032 19.9884 57.6667 19.8351 57.6667 19.6553V19.0208C57.6667 18.8411 57.6032 18.693 57.4763 18.5767C57.3599 18.4498 57.2119 18.3864 57.032 18.3864H52.2721ZM49.2574 15.6899H57.984C58.7245 15.6899 59.3591 15.9542 59.888 16.483C60.4169 17.0117 60.6813 17.6462 60.6813 18.3864V20.2898C60.6813 20.8925 60.5015 21.4318 60.1419 21.9077C59.7822 22.3835 59.3221 22.7061 58.7615 22.8752L61.078 26H57.6508L55.4295 22.9863H52.2721V26H49.2574V15.6899Z" fill="var(--fill-0, white)"/>
<path d="M62.1955 15.6899H65.2101V26H62.1955V15.6899Z" fill="var(--fill-0, white)"/>
<path d="M66.317 15.6899H77.7409V18.2595H73.5363V26H70.5217V18.2595H66.317V15.6899Z" fill="var(--fill-0, white)"/>
<path d="M78.8522 15.6899H81.8668L85.1988 20.2898L88.5308 15.6899H91.5454L86.7061 22.4628V26H83.6915V22.4628L78.8522 15.6899Z" fill="var(--fill-0, white)"/>
</g>
</svg>
